<mxfile
  host="Electron"
  agent="Mozilla/5.0 (Macintosh; Intel Mac OS X 10_15_7) AppleWebKit/537.36 (KHTML, like Gecko) draw.io/25.0.2 Chrome/128.0.6613.186 Electron/32.2.5 Safari/537.36"
  version="25.0.2"
  >
  <diagram
    name="diac-mono-repo-projects"
    >
    <mxGraphModel
      grid="1"
      gridSize="10"
      guides="1"
      tooltips="1"
      connect="1"
      arrows="1"
      fold="1"
      page="1"
      pageScale="1"
      pageWidth="1"
      pageHeight="1"
      math="0"
      shadow="0"
      >
      <root>
        <mxCell
          id="page"
          />
        <mxCell
          id="root"
          parent="page"
          />
        <mxCell
          style="align=center;strokeColor=none;verticalAlign=top;aspect=fixed"
          id="mono_repo_diacmonorepoprojects"
          parent="root"
          value="DIaC Mono Repo Projects"
          vertex="1"
          >
          <mxGeometry
            as="geometry"
            width="800"
            height="450"
            x="0"
            y="0"
            />
          </mxCell>
        <mxCell
          style="align=center;spacingLeft=5;spacingRight=5;spacingBottom=5;verticalAlign=top;aspect=fixed"
          id="core_coreprojectmodules"
          parent="mono_repo_diacmonorepoprojects"
          value="Core Project / Modules"
          vertex="1"
          >
          <mxGeometry
            as="geometry"
            width="550"
            height="390"
            x="30"
            y="30"
            />
          </mxCell>
        <mxCell
          style="align=center;spacingLeft=5;spacingRight=5;spacingBottom=5;verticalAlign=top;aspect=fixed"
          id="standard_components_standardcomponents"
          parent="core_coreprojectmodules"
          value="Standard Components"
          vertex="1"
          >
          <mxGeometry
            as="geometry"
            width="490"
            height="90"
            x="30"
            y="30"
            />
          </mxCell>
        <mxCell
          style="rounded=1;whiteSpace=wrap;verticalAlign=middle;align=center"
          id="module_standardcomponentsdiagrams"
          parent="standard_components_standardcomponents"
          value="standard-components-diagrams"
          vertex="1"
          >
          <mxGeometry
            width="200"
            height="30"
            as="geometry"
            x="30"
            y="30"
            />
          </mxCell>
        <mxCell
          style="rounded=1;whiteSpace=wrap;verticalAlign=middle;align=center"
          id="module_standardcomponentstfaws"
          parent="standard_components_standardcomponents"
          value="standard-components-tf-aws"
          vertex="1"
          >
          <mxGeometry
            width="200"
            height="30"
            as="geometry"
            x="260"
            y="30"
            />
          </mxCell>
        <mxCell
          style="align=center;spacingLeft=5;spacingRight=5;spacingBottom=5;verticalAlign=top;aspect=fixed"
          id="base"
          parent="core_coreprojectmodules"
          value="Base"
          vertex="1"
          >
          <mxGeometry
            as="geometry"
            width="490"
            height="90"
            x="30"
            y="150"
            />
          </mxCell>
        <mxCell
          style="rounded=1;whiteSpace=wrap;verticalAlign=middle;align=center"
          id="module_basecomponents"
          parent="base"
          value="base-components"
          vertex="1"
          >
          <mxGeometry
            width="100"
            height="30"
            as="geometry"
            x="80"
            y="30"
            />
          </mxCell>
        <mxCell
          style="rounded=1;whiteSpace=wrap;verticalAlign=middle;align=center"
          id="module_baserenderer"
          parent="base"
          value="base-renderer"
          vertex="1"
          >
          <mxGeometry
            width="100"
            height="30"
            as="geometry"
            x="310"
            y="30"
            />
          </mxCell>
        <mxCell
          style="align=center;spacingLeft=5;spacingRight=5;spacingBottom=5;verticalAlign=top;aspect=fixed"
          id="renderers"
          parent="core_coreprojectmodules"
          value="Renderers"
          vertex="1"
          >
          <mxGeometry
            as="geometry"
            width="490"
            height="90"
            x="30"
            y="270"
            />
          </mxCell>
        <mxCell
          style="rounded=1;whiteSpace=wrap;verticalAlign=middle;align=center"
          id="module_rendererjson"
          parent="renderers"
          value="renderer-json"
          vertex="1"
          >
          <mxGeometry
            width="100"
            height="30"
            as="geometry"
            x="41.666666666666664"
            y="30"
            />
          </mxCell>
        <mxCell
          style="rounded=1;whiteSpace=wrap;verticalAlign=middle;align=center"
          id="module_rendererdrawio"
          parent="renderers"
          value="renderer-drawio"
          vertex="1"
          >
          <mxGeometry
            width="100"
            height="30"
            as="geometry"
            x="195"
            y="30"
            />
          </mxCell>
        <mxCell
          style="rounded=1;whiteSpace=wrap;verticalAlign=middle;align=center"
          id="module_renderertf"
          parent="renderers"
          value="renderer-tf"
          vertex="1"
          >
          <mxGeometry
            width="100"
            height="30"
            as="geometry"
            x="348.3333333333333"
            y="30"
            />
          </mxCell>
        <mxCell
          style="align=center;spacingLeft=5;spacingRight=5;spacingBottom=5;verticalAlign=top;aspect=fixed"
          id="projects"
          parent="mono_repo_diacmonorepoprojects"
          value="Projects"
          vertex="1"
          >
          <mxGeometry
            as="geometry"
            width="160"
            height="390"
            x="610"
            y="30"
            />
          </mxCell>
        <mxCell
          style="rounded=1;whiteSpace=wrap;verticalAlign=middle;align=center"
          id="project_examples"
          parent="projects"
          value="examples"
          vertex="1"
          >
          <mxGeometry
            width="100"
            height="90"
            as="geometry"
            x="30"
            y="30"
            />
          </mxCell>
        <mxCell
          style="rounded=1;whiteSpace=wrap;verticalAlign=middle;align=center"
          id="project_cli"
          parent="projects"
          value="cli"
          vertex="1"
          >
          <mxGeometry
            width="100"
            height="90"
            as="geometry"
            x="30"
            y="150"
            />
          </mxCell>
        <mxCell
          style="rounded=1;whiteSpace=wrap;verticalAlign=middle;align=center"
          id="project_engine"
          parent="projects"
          value="engine"
          vertex="1"
          >
          <mxGeometry
            width="100"
            height="90"
            as="geometry"
            x="30"
            y="270"
            />
          </mxCell>
        <mxCell
          id="dependency"
          source="standard_components_standardcomponents"
          target="module_basecomponents"
          parent="root"
          edge="1"
          style="rounded=1;orthogonalLoop=1;jettySize=auto;html=1;edgeStyle=orthogonalEdgeStyle"
          >
          <mxGeometry
            relative="1"
            as="geometry"
            >
            <Array
              as="points"
              >
              <mxPoint
                x="190"
                y="180"
                />
              <mxPoint
                x="190"
                y="180"
                />
              </Array>
            </mxGeometry>
          </mxCell>
        <mxCell
          id="dependency_2"
          source="module_baserenderer"
          target="module_basecomponents"
          parent="root"
          edge="1"
          style="rounded=1;orthogonalLoop=1;jettySize=auto;html=1;edgeStyle=orthogonalEdgeStyle"
          >
          <mxGeometry
            relative="1"
            as="geometry"
            >
            <Array
              as="points"
              >
              <mxPoint
                x="305"
                y="225"
                />
              <mxPoint
                x="305"
                y="225"
                />
              </Array>
            </mxGeometry>
          </mxCell>
        <mxCell
          id="dependency_3"
          source="renderers"
          target="module_baserenderer"
          parent="root"
          edge="1"
          style="rounded=1;orthogonalLoop=1;jettySize=auto;html=1;edgeStyle=elbowEdgeStyle"
          >
          <mxGeometry
            relative="1"
            as="geometry"
            />
          </mxCell>
        <mxCell
          id="dependency_4"
          source="project_examples"
          target="standard_components_standardcomponents"
          parent="root"
          edge="1"
          style="rounded=1;orthogonalLoop=1;jettySize=auto;html=1;edgeStyle=orthogonalEdgeStyle"
          >
          <mxGeometry
            relative="1"
            as="geometry"
            >
            <Array
              as="points"
              >
              <mxPoint
                x="595"
                y="105"
                />
              <mxPoint
                x="595"
                y="105"
                />
              </Array>
            </mxGeometry>
          </mxCell>
        <mxCell
          id="dependency_5"
          source="project_cli"
          target="project_examples"
          parent="root"
          edge="1"
          style="rounded=1;orthogonalLoop=1;jettySize=auto;html=1;edgeStyle=orthogonalEdgeStyle"
          >
          <mxGeometry
            relative="1"
            as="geometry"
            >
            <Array
              as="points"
              >
              <mxPoint
                x="690"
                y="165"
                />
              <mxPoint
                x="690"
                y="165"
                />
              </Array>
            </mxGeometry>
          </mxCell>
        <mxCell
          id="dependency_6"
          source="project_engine"
          target="renderers"
          parent="root"
          edge="1"
          style="rounded=1;orthogonalLoop=1;jettySize=auto;html=1;edgeStyle=orthogonalEdgeStyle"
          >
          <mxGeometry
            relative="1"
            as="geometry"
            >
            <Array
              as="points"
              >
              <mxPoint
                x="595"
                y="345"
                />
              <mxPoint
                x="595"
                y="345"
                />
              </Array>
            </mxGeometry>
          </mxCell>
        <mxCell
          id="dependency_7"
          source="project_cli"
          target="project_engine"
          parent="root"
          edge="1"
          style="rounded=1;orthogonalLoop=1;jettySize=auto;html=1;edgeStyle=orthogonalEdgeStyle"
          >
          <mxGeometry
            relative="1"
            as="geometry"
            >
            <Array
              as="points"
              >
              <mxPoint
                x="690"
                y="285"
                />
              <mxPoint
                x="690"
                y="285"
                />
              </Array>
            </mxGeometry>
          </mxCell>
        </root>
      </mxGraphModel>
    </diagram>
  </mxfile>
